<svg width="1653" height="995" xmlns="http://www.w3.org/2000/svg" xmlns:xlink="http://www.w3.org/1999/xlink" xml:space="preserve" overflow="hidden"><g transform="translate(1 1)"><rect x="0" y="0" width="1650" height="992" fill="#FFFFFF"/><g><path d="M88.4998 590.52 1599.5 590.52M88.4998 450.515 1599.5 450.515M88.4998 310.51 1599.5 310.51M88.4998 169.5 1599.5 169.5" stroke="#D9D9D9" stroke-width="3.4375" stroke-linejoin="round" stroke-miterlimit="10" fill="none"/></g><g><path d="M233.008 254.008 365.012 254.008 365.012 731 233.008 731ZM989.032 253.008 1120.04 253.008 1120.04 731 989.032 731Z" fill="#FFFF66"/></g><g><path d="M401.013 247.008 533.017 247.008 533.017 731 401.013 731ZM1156.04 286.009 1288.04 286.009 1288.04 731 1156.04 731Z" fill="#66FFCC"/></g><g><path d="M568.019 257.008 700.023 257.008 700.023 731 568.019 731ZM1323.04 295.01 1455.05 295.01 1455.05 731 1323.04 731Z" fill="#000066"/></g><g><path d="M88.4998 730.5 1599.5 730.5" stroke="#D9D9D9" stroke-width="3.4375" stroke-linejoin="round" stroke-miterlimit="10" fill="none" fill-rule="evenodd"/></g><g><text fill="#404040" font-family="Calibri,Calibri_MSFontService,sans-serif" font-weight="400" font-size="41" transform="matrix(1 0 0 1 273.162 222)">4,4</text></g><g><text fill="#404040" font-family="Calibri,Calibri_MSFontService,sans-serif" font-weight="400" font-size="41" transform="matrix(1 0 0 1 1028.47 221)">4,4</text></g><g><text fill="#404040" font-family="Calibri,Calibri_MSFontService,sans-serif" font-weight="400" font-size="41" transform="matrix(1 0 0 1 440.57 215)">4,5</text></g><g><text fill="#404040" font-family="Calibri,Calibri_MSFontService,sans-serif" font-weight="400" font-size="41" transform="matrix(1 0 0 1 1195.88 254)">4,2</text></g><g><text fill="#404040" font-family="Calibri,Calibri_MSFontService,sans-serif" font-weight="400" font-size="41" transform="matrix(1 0 0 1 607.978 225)">4,4</text></g><g><text fill="#404040" font-family="Calibri,Calibri_MSFontService,sans-serif" font-weight="400" font-size="41" transform="matrix(1 0 0 1 1363.29 263)">4,1</text></g><g><text fill="#595959" font-family="Calibri,Calibri_MSFontService,sans-serif" font-weight="400" font-size="41" transform="matrix(1 0 0 1 29.7917 742)">1</text></g><g><text fill="#595959" font-family="Calibri,Calibri_MSFontService,sans-serif" font-weight="400" font-size="41" transform="matrix(1 0 0 1 29.7917 602)">2</text></g><g><text fill="#595959" font-family="Calibri,Calibri_MSFontService,sans-serif" font-weight="400" font-size="41" transform="matrix(1 0 0 1 29.7917 462)">3</text></g><g><text fill="#595959" font-family="Calibri,Calibri_MSFontService,sans-serif" font-weight="400" font-size="41" transform="matrix(1 0 0 1 29.7917 322)">4</text></g><g><text fill="#595959" font-family="Calibri,Calibri_MSFontService,sans-serif" font-weight="400" font-size="41" transform="matrix(1 0 0 1 29.7917 182)">5</text></g><g><text fill="#595959" font-family="Calibri,Calibri_MSFontService,sans-serif" font-weight="400" font-size="41" transform="matrix(1 0 0 1 103.372 796)">Hoe tevreden ben je op dit moment over je</text></g><g><text fill="#595959" font-family="Calibri,Calibri_MSFontService,sans-serif" font-weight="400" font-size="41" transform="matrix(1 0 0 1 236.954 846)">keuze voor jouw opleiding?</text></g><g><text fill="#595959" font-family="Calibri,Calibri_MSFontService,sans-serif" font-weight="400" font-size="41" transform="matrix(1 0 0 1 940.99 796)">Ik voel me thuis bij mijn opleiding</text></g><g><text fill="#595959" font-family="Calibri,Calibri_MSFontService,sans-serif" font-weight="400" font-size="64" transform="matrix(1 0 0 1 314.898 95)">Resultaten 100Dagenmonitor AD FDND</text></g><g><rect x="627" y="915" width="23.0001" height="22" fill="#FFFF66"/></g><g><text fill="#595959" font-family="Calibri,Calibri_MSFontService,sans-serif" font-weight="400" font-size="41" transform="matrix(1 0 0 1 659.325 938)">2023</text></g><g><rect x="775" y="915" width="22.9997" height="22" fill="#66FFCC"/></g><g><text fill="#595959" font-family="Calibri,Calibri_MSFontService,sans-serif" font-weight="400" font-size="41" transform="matrix(1 0 0 1 807.575 938)">2024</text></g><g><rect x="924" y="915" width="22" height="22" fill="#000066"/></g><g><text fill="#595959" font-family="Calibri,Calibri_MSFontService,sans-serif" font-weight="400" font-size="41" transform="matrix(1 0 0 1 955.825 938)">2025</text></g><rect x="0.499836" y="0.499836" width="1650" height="992" stroke="#D9D9D9" stroke-width="3.4375" stroke-linejoin="round" stroke-miterlimit="10" fill="none"/></g></svg>