<svg width="1652" height="995" xmlns="http://www.w3.org/2000/svg" xmlns:xlink="http://www.w3.org/1999/xlink" xml:space="preserve" overflow="hidden"><g transform="translate(1 1)"><rect x="0" y="0" width="1649" height="992" fill="#FFFFFF"/><g><path d="M88.4998 590.52 1598.5 590.52M88.4998 450.515 1598.5 450.515M88.4998 310.51 1598.5 310.51M88.4998 169.5 1598.5 169.5" stroke="#D9D9D9" stroke-width="3.4375" stroke-linejoin="round" stroke-miterlimit="10" fill="none"/></g><g><path d="M168.006 295.01 240.008 295.01 240.008 731 168.006 731ZM671.022 341.011 743.024 341.011 743.024 731 671.022 731ZM1174.04 372.012 1246.04 372.012 1246.04 731 1174.04 731Z" fill="#9966FF"/></g><g><path d="M259.008 293.01 331.011 293.01 331.011 731 259.008 731ZM762.025 300.01 834.027 300.01 834.027 731 762.025 731ZM1265.04 307.01 1337.04 307.01 1337.04 731 1265.04 731Z" fill="#FFFF66"/></g><g><path d="M350.011 274.009 422.014 274.009 422.014 731 350.011 731ZM853.028 285.009 925.03 285.009 925.03 731 853.028 731ZM1357.04 303.01 1428.05 303.01 1428.05 731 1357.04 731Z" fill="#66FFCC"/></g><g><path d="M442.014 309.01 513.017 309.01 513.017 731 442.014 731ZM945.031 298.01 1017.03 298.01 1017.03 731 945.031 731ZM1448.05 288.009 1520.05 288.009 1520.05 731 1448.05 731Z" fill="#000066"/></g><g><path d="M88.4998 730.5 1598.5 730.5" stroke="#D9D9D9" stroke-width="3.4375" stroke-linejoin="round" stroke-miterlimit="10" fill="none" fill-rule="evenodd"/></g><g><text fill="#404040" font-family="Calibri,Calibri_MSFontService,sans-serif" font-weight="400" font-size="41" transform="matrix(1 0 0 1 177.562 263)">4,1</text></g><g><text fill="#404040" font-family="Calibri,Calibri_MSFontService,sans-serif" font-weight="400" font-size="41" transform="matrix(1 0 0 1 680.722 309)">3,8</text></g><g><text fill="#404040" font-family="Calibri,Calibri_MSFontService,sans-serif" font-weight="400" font-size="41" transform="matrix(1 0 0 1 1183.88 340)">3,6</text></g><g><text fill="#404040" font-family="Calibri,Calibri_MSFontService,sans-serif" font-weight="400" font-size="41" transform="matrix(1 0 0 1 268.85 261)">4,1</text></g><g><text fill="#404040" font-family="Calibri,Calibri_MSFontService,sans-serif" font-weight="400" font-size="41" transform="matrix(1 0 0 1 772.009 268)">4,1</text></g><g><text fill="#404040" font-family="Calibri,Calibri_MSFontService,sans-serif" font-weight="400" font-size="41" transform="matrix(1 0 0 1 1275.17 275)">4,0</text></g><g><text fill="#404040" font-family="Calibri,Calibri_MSFontService,sans-serif" font-weight="400" font-size="41" transform="matrix(1 0 0 1 360.137 242)">4,3</text></g><g><text fill="#404040" font-family="Calibri,Calibri_MSFontService,sans-serif" font-weight="400" font-size="41" transform="matrix(1 0 0 1 863.297 253)">4,2</text></g><g><text fill="#404040" font-family="Calibri,Calibri_MSFontService,sans-serif" font-weight="400" font-size="41" transform="matrix(1 0 0 1 1366.46 271)">4,1</text></g><g><text fill="#404040" font-family="Calibri,Calibri_MSFontService,sans-serif" font-weight="400" font-size="41" transform="matrix(1 0 0 1 451.425 277)">4,0</text></g><g><text fill="#404040" font-family="Calibri,Calibri_MSFontService,sans-serif" font-weight="400" font-size="41" transform="matrix(1 0 0 1 954.584 266)">4,1</text></g><g><text fill="#404040" font-family="Calibri,Calibri_MSFontService,sans-serif" font-weight="400" font-size="41" transform="matrix(1 0 0 1 1457.74 256)">4,2</text></g><g><text fill="#595959" font-family="Calibri,Calibri_MSFontService,sans-serif" font-weight="400" font-size="41" transform="matrix(1 0 0 1 29.7917 742)">1</text></g><g><text fill="#595959" font-family="Calibri,Calibri_MSFontService,sans-serif" font-weight="400" font-size="41" transform="matrix(1 0 0 1 29.7917 602)">2</text></g><g><text fill="#595959" font-family="Calibri,Calibri_MSFontService,sans-serif" font-weight="400" font-size="41" transform="matrix(1 0 0 1 29.7917 462)">3</text></g><g><text fill="#595959" font-family="Calibri,Calibri_MSFontService,sans-serif" font-weight="400" font-size="41" transform="matrix(1 0 0 1 29.7917 322)">4</text></g><g><text fill="#595959" font-family="Calibri,Calibri_MSFontService,sans-serif" font-weight="400" font-size="41" transform="matrix(1 0 0 1 29.7917 182)">5</text></g><g><text fill="#595959" font-family="Calibri,Calibri_MSFontService,sans-serif" font-weight="400" font-size="41" transform="matrix(1 0 0 1 173.097 796)">Opleiding algemeen</text></g><g><text fill="#595959" font-family="Calibri,Calibri_MSFontService,sans-serif" font-weight="400" font-size="41" transform="matrix(1 0 0 1 784.264 796)">Inhoud</text></g><g><text fill="#595959" font-family="Calibri,Calibri_MSFontService,sans-serif" font-weight="400" font-size="41" transform="matrix(1 0 0 1 1174.65 796)">Voorbereiding op de</text></g><g><text fill="#595959" font-family="Calibri,Calibri_MSFontService,sans-serif" font-weight="400" font-size="41" transform="matrix(1 0 0 1 1199.75 846)">beroepsloopbaan</text></g><g><text fill="#595959" font-family="Calibri,Calibri_MSFontService,sans-serif" font-weight="400" font-size="64" transform="matrix(1 0 0 1 500.076 95)">Resultaten NSE AD FDND</text></g><g><rect x="550" y="915" width="23.0001" height="22" fill="#9966FF"/></g><g><text fill="#595959" font-family="Calibri,Calibri_MSFontService,sans-serif" font-weight="400" font-size="41" transform="matrix(1 0 0 1 582.693 938)">2022</text></g><g><rect x="700" y="915" width="23.0001" height="22" fill="#FFFF66"/></g><g><text fill="#595959" font-family="Calibri,Calibri_MSFontService,sans-serif" font-weight="400" font-size="41" transform="matrix(1 0 0 1 732.232 938)">2023</text></g><g><rect x="850" y="915" width="22" height="22" fill="#66FFCC"/></g><g><text fill="#595959" font-family="Calibri,Calibri_MSFontService,sans-serif" font-weight="400" font-size="41" transform="matrix(1 0 0 1 881.771 938)">2024</text></g><g><rect x="999" y="915" width="23.0001" height="22" fill="#000066"/></g><g><text fill="#595959" font-family="Calibri,Calibri_MSFontService,sans-serif" font-weight="400" font-size="41" transform="matrix(1 0 0 1 1031.31 938)">2025</text></g><rect x="0.499836" y="0.499836" width="1649" height="992" stroke="#D9D9D9" stroke-width="3.4375" stroke-linejoin="round" stroke-miterlimit="10" fill="none"/></g></svg>